P2
# (C) Marcus Stollsteimer, 2014
9 7
255
254 254  80  80  80  80  80 254 254
254  80  81  80  81  80  81  80 254
 80  80  81  80  81  80  81  80  80
254   0 201 201 201 200 201   0 254
200   0 201 150 201  50 201   0 200
150   0 201 200 201  50 201   0 150
100   0   0   0   0   0   0   0 100
